<?xml version="1.0" encoding="UTF-8" standalone="no"?>
<!-- Created with Inkscape (http://www.inkscape.org/) -->

<svg
   xmlns:dc="http://purl.org/dc/elements/1.1/"
   xmlns:cc="http://creativecommons.org/ns#"
   xmlns:rdf="http://www.w3.org/1999/02/22-rdf-syntax-ns#"
   xmlns:svg="http://www.w3.org/2000/svg"
   xmlns="http://www.w3.org/2000/svg"
   xmlns:sodipodi="http://sodipodi.sourceforge.net/DTD/sodipodi-0.dtd"
   xmlns:inkscape="http://www.inkscape.org/namespaces/inkscape"
   width="210mm"
   height="297mm"
   viewBox="0 0 744.09448819 1052.3622047"
   id="svg2"
   version="1.1"
   inkscape:version="0.91 r13725"
   sodipodi:docname="fjes.svg">
  <defs
     id="defs4" />
  <sodipodi:namedview
     id="base"
     pagecolor="#ffffff"
     bordercolor="#666666"
     borderopacity="1.0"
     inkscape:pageopacity="0.0"
     inkscape:pageshadow="2"
     inkscape:zoom="0.35"
     inkscape:cx="375"
     inkscape:cy="520"
     inkscape:document-units="px"
     inkscape:current-layer="layer1"
     showgrid="false"
     inkscape:window-width="1920"
     inkscape:window-height="1017"
     inkscape:window-x="-8"
     inkscape:window-y="-8"
     inkscape:window-maximized="1" />
  <metadata
     id="metadata7">
    <rdf:RDF>
      <cc:Work
         rdf:about="">
        <dc:format>image/svg+xml</dc:format>
        <dc:type
           rdf:resource="http://purl.org/dc/dcmitype/StillImage" />
        <dc:title></dc:title>
      </cc:Work>
    </rdf:RDF>
  </metadata>
  <g
     inkscape:label="Layer 1"
     inkscape:groupmode="layer"
     id="layer1">
    <path
       sodipodi:type="spiral"
       style="fill:none;fill-rule:evenodd;stroke:#000000;stroke-width:1px;stroke-linecap:butt;stroke-linejoin:miter;stroke-opacity:1"
       id="path3370"
       sodipodi:cx="348.57141"
       sodipodi:cy="475.21936"
       sodipodi:expansion="1"
       sodipodi:revolution="3"
       sodipodi:radius="229.44476"
       sodipodi:argument="-17.366037"
       sodipodi:t0="0"
       d="m 348.57141,475.21936 c 1.00277,11.46021 -14.9534,7.00578 -19.04762,1.66667 -11.09508,-14.46865 1.36767,-33.77311 15.71429,-39.76191 25.66273,-10.71256 52.93211,8.39107 60.47619,33.09524 11.07124,36.25435 -15.42437,72.42267 -50.47619,81.19048 -46.71856,11.68611 -92.04032,-22.44998 -101.90476,-67.85714 -12.4134,-57.14028 29.46919,-111.72083 85.23808,-122.61905 67.5436,-13.19921 131.43721,36.48427 143.33335,102.61904 14.01918,77.93753 -43.49668,151.17601 -120,164.04762 -88.32611,14.86079 -170.9298,-50.50729 -184.76191,-137.38094 -15.71693,-98.71136 57.51668,-190.69407 154.76189,-205.4762 109.09443,-16.58331 210.46599,64.5252 226.19049,172.14284 17.45718,119.47598 -71.53308,230.24364 -189.52379,246.90478"
       transform="matrix(0.4600724,0,0,0.43829081,45.647251,112.74134)" />
    <path
       sodipodi:type="spiral"
       style="fill:none;fill-rule:evenodd;stroke:#000000;stroke-width:1px;stroke-linecap:butt;stroke-linejoin:miter;stroke-opacity:1"
       id="path3370-0"
       sodipodi:cx="348.57141"
       sodipodi:cy="475.21936"
       sodipodi:expansion="1"
       sodipodi:revolution="3"
       sodipodi:radius="229.44476"
       sodipodi:argument="-17.366037"
       sodipodi:t0="0"
       d="m 348.57141,475.21936 c 1.00277,11.46021 -14.9534,7.00578 -19.04762,1.66667 -11.09508,-14.46865 1.36767,-33.77311 15.71429,-39.76191 25.66273,-10.71256 52.93211,8.39107 60.47619,33.09524 11.07124,36.25435 -15.42437,72.42267 -50.47619,81.19048 -46.71856,11.68611 -92.04032,-22.44998 -101.90476,-67.85714 -12.4134,-57.14028 29.46919,-111.72083 85.23808,-122.61905 67.5436,-13.19921 131.43721,36.48427 143.33335,102.61904 14.01918,77.93753 -43.49668,151.17601 -120,164.04762 -88.32611,14.86079 -170.9298,-50.50729 -184.76191,-137.38094 -15.71693,-98.71136 57.51668,-190.69407 154.76189,-205.4762 109.09443,-16.58331 210.46599,64.5252 226.19049,172.14284 17.45718,119.47598 -71.53308,230.24364 -189.52379,246.90478"
       transform="matrix(0.4600724,0,0,0.43829081,322.28295,116.20336)" />
    <ellipse
       style="fill:#000000"
       id="path3395"
       cx="362.85715"
       cy="655.21936"
       rx="225.71428"
       ry="185.71428" />
    <path
       sodipodi:type="star"
       style="fill:#000000"
       id="path3397"
       sodipodi:sides="5"
       sodipodi:cx="357.14286"
       sodipodi:cy="426.64791"
       sodipodi:r1="32.324883"
       sodipodi:r2="16.162441"
       sodipodi:arg1="0.78539816"
       sodipodi:arg2="1.4137167"
       inkscape:flatsided="false"
       inkscape:rounded="0"
       inkscape:randomized="0"
       d="m 380,449.50506 -20.32878,-6.89369 -17.20356,12.83823 0.27435,-21.46409 -17.52607,-12.39432 20.49834,-6.37184 6.37185,-20.49834 12.39432,17.52607 21.46408,-0.27435 -12.83822,17.20355 z"
       inkscape:transform-center-x="1.5626141"
       inkscape:transform-center-y="-1.5626141" />
    <text
       xml:space="preserve"
       style="font-style:normal;font-weight:normal;font-size:27.3896637px;line-height:125%;font-family:sans-serif;letter-spacing:0px;word-spacing:0px;fill:#000000;fill-opacity:1;stroke:none;stroke-width:1px;stroke-linecap:butt;stroke-linejoin:miter;stroke-opacity:1"
       x="677.21826"
       y="985.83826"
       id="text3399"
       sodipodi:linespacing="125%"
       transform="scale(0.94692855,1.0560459)"><tspan
         sodipodi:role="line"
         id="tspan3401"
         x="677.21826"
         y="985.83826">killl me</tspan></text>
  </g>
</svg>
